<mxfile host="app.diagrams.net" modified="2024-05-03T12:09:32.869Z" agent="Mozilla/5.0 (Macintosh; Intel Mac OS X 10_15_7) AppleWebKit/537.36 (KHTML, like Gecko) Chrome/119.0.0.0 Safari/537.36" version="24.3.1" etag="n1MtVjg0uS2-L2txfpIC" type="github">
  <diagram name="Page-1" id="nPLDLO_bTaF6S7Ele68V">
    <mxGraphModel>
      <root>
        <mxCell id="0" />
        <mxCell id="1" parent="0" />
      </root>
    </mxGraphModel>
  </diagram>
</mxfile>
